<?xml version="1.0" standalone="no"?><!DOCTYPE svg PUBLIC "-//W3C//DTD SVG 1.1//EN" "http://www.w3.org/Graphics/SVG/1.1/DTD/svg11.dtd"><svg t="1615037697746" class="icon" viewBox="0 0 1024 1024" version="1.1" xmlns="http://www.w3.org/2000/svg" p-id="14943" id="mx_n_1615037697747" xmlns:xlink="http://www.w3.org/1999/xlink" width="200" height="200"><defs><style type="text/css"></style></defs><path d="M0 512c0 282.775704 229.224296 512 512 512s512-229.224296 512-512S794.775704 0 512 0 0 229.224296 0 512z" fill="#5869FF" p-id="14944"></path><path d="M727.988148 606.39763L523.055407 259.792593c-8.438519-14.829037-15.322074-16.763259-29.961481-8.154074-14.620444 8.609185-16.459852 15.644444-8.021333 30.568296l189.686518 355.479704c8.476444 14.923852 18.583704 4.608 33.185185-4.039112 14.639407-8.609185 28.444444-12.344889 20.005926-27.249777h0.037926z m54.196148 64.474074a45.511111 45.511111 0 0 0-63.317333-15.492741c-20.859259 13.065481-28.084148 40.504889-16.421926 62.445037 20.461037 36.143407 50.706963 20.973037 72.609185 59.657481 33.810963-37.072593 20.66963-82.735407 7.130074-106.62874v0.037926zM481.033481 378.083556a5.30963 5.30963 0 0 0 7.319704-2.029037c4.721778-8.059259 6.049185-17.673481 3.77363-26.756741a35.271111 35.271111 0 0 0-16.402963-21.428148 33.792 33.792 0 0 0-26.358519-3.754667c-8.855704 2.465185-16.384 8.51437-20.859259 16.668444a5.499259 5.499259 0 0 0 1.915259 7.395556l50.612148 29.904593z m-11.358814 15.644444l-49.360593-29.089185a5.30963 5.30963 0 0 0-7.338667 1.991111l-153.144888 270.677333 58.633481 34.569482 153.220741-270.734222a5.499259 5.499259 0 0 0-1.972148-7.414519h-0.037926zM231.044741 688.146963a5.44237 5.44237 0 0 0-0.568889 3.546074L227.555556 753.910519a5.44237 5.44237 0 0 0 5.176888 5.688888 5.30963 5.30963 0 0 0 3.072-0.853333l52.224-34.171259a5.423407 5.423407 0 0 0 1.953186-2.389334l13.710222-24.177777-58.652445-34.569482-13.994666 24.708741z m22.679703-95.383704h7.471408l49.303704-87.229629H253.724444a10.846815 10.846815 0 0 0-10.733037 10.979555v65.251556a10.846815 10.846815 0 0 0 10.733037 10.998518z m498.725926 0a10.846815 10.846815 0 0 0 10.752-10.960592v-65.289482a10.846815 10.846815 0 0 0-10.752-10.960592h-58.538666l52.622222 87.229629h5.916444z m-316.245333-87.229629l-49.303704 87.229629h240.905482l-46.535111-87.229629h-145.066667z" fill="#FFFFFF" p-id="14945"></path></svg>